<svg xmlns="http://www.w3.org/2000/svg" width="1240" height="1240" viewBox="0 0 1240 1240"><defs><linearGradient id="bg" x1="0" y1="0" x2="1" y2="1"><stop stop-color="#fff8ed"/><stop offset="1" stop-color="#ead0a4"/></linearGradient><linearGradient id="wine" x1="0" y1="0" x2="1" y2="1"><stop stop-color="#4d0717"/><stop offset="1" stop-color="#861d32"/></linearGradient><linearGradient id="gold" x1="0" y1="0" x2="1" y2="1"><stop stop-color="#f8dc8d"/><stop offset=".5" stop-color="#b87515"/><stop offset="1" stop-color="#ffe7a5"/></linearGradient><filter id="shadow"><feDropShadow dx="0" dy="10" stdDeviation="16" flood-opacity=".22"/></filter></defs><rect width="1240" height="1240" fill="url(#bg)"/><rect x="18" y="18" width="1204" height="1204" rx="10" fill="none" stroke="#b77a23" stroke-width="2"/><g opacity=".18" fill="#b77a23"><circle cx="1090" cy="120" r="100"/><circle cx="1170" cy="260" r="55"/><circle cx="1050" cy="1090" r="120"/><circle cx="90" cy="1050" r="80"/></g><g transform="translate(665 60)" filter="url(#shadow)"><path d="M140 170c0-70 52-125 118-125s118 55 118 125v120H140z" fill="#581124"/><circle cx="258" cy="205" r="94" fill="#8b4b2d"/><path d="M135 300c65-42 185-38 250 14 58 47 93 145 88 278l-32 266H88L62 595c-8-133 20-246 73-295z" fill="url(#wine)"/><path d="M105 350c70 55 226 61 305 8l38 430H78z" fill="#2b2028" opacity=".55"/><path d="M205 148c25-35 83-55 125-25 20 14 38 40 42 72-63-27-117-27-167-1z" fill="#4d0717"/></g><g transform="translate(840 170)" filter="url(#shadow)"><path d="M85 145c0-75 53-128 122-128s122 53 122 128v95H85z" fill="#5b071b"/><circle cx="207" cy="190" r="93" fill="#9d5630"/><path d="M80 285c57-41 180-43 244 7 62 49 93 159 82 292l-25 272H45L20 585c-10-132 12-249 60-300z" fill="url(#wine)"/><path d="M80 123c28-42 86-67 142-48 44 15 83 57 91 112-70-31-145-28-233-4z" fill="#4d0717"/><g fill="#e56e43"><rect x="120" y="279" width="26" height="180" rx="13"/><rect x="152" y="265" width="26" height="204" rx="13"/><rect x="184" y="257" width="26" height="220" rx="13"/></g></g><g font-family="Georgia,serif" fill="#5a0718"><text x="75" y="145" font-size="72" font-style="italic" fill="#a66a18">Congratulations</text><text x="65" y="310" font-size="155" font-style="italic">Peller</text><text x="305" y="375" font-size="54" fill="#b67b27">and</text><text x="85" y="520" font-size="145" font-style="italic">Jarvis</text></g><g transform="translate(55 548)"><path d="M0 35L35 0h500l35 35-35 35H35z" fill="url(#wine)" stroke="#d9a848" stroke-width="4"/><text x="285" y="50" text-anchor="middle" font-family="Georgia,serif" font-size="31" letter-spacing="5" fill="#f8df9c">2026 WEDDING CELEBRATION</text></g><text x="90" y="690" font-family="Georgia,serif" font-size="42" fill="#4e1a22">Love. Commitment. Forever.</text><text x="160" y="755" font-family="Arial,sans-serif" font-size="29" text-anchor="middle" fill="#4e1a22"><tspan x="285">Join us as we celebrate the</tspan><tspan x="285" dy="36">beautiful union of</tspan><tspan x="285" dy="40" font-weight="700">Peller &amp; Jarvis in 2026!</tspan></text><g transform="translate(24 820)" filter="url(#shadow)"><rect width="720" height="300" rx="35" fill="url(#wine)" stroke="url(#gold)" stroke-width="6"/><text x="360" y="58" text-anchor="middle" font-family="Georgia,serif" font-size="34" letter-spacing="5" fill="#f4d88b">CELEBRATE &amp; GET</text><text x="190" y="160" text-anchor="middle" font-family="Georgia,serif" font-size="76" fill="#f8d77d">₦10,000</text><text x="530" y="160" text-anchor="middle" font-family="Georgia,serif" font-size="76" fill="#f8d77d">20GB</text><text x="360" y="158" text-anchor="middle" font-family="Arial" font-size="66" fill="#f8d77d">+</text><text x="190" y="208" text-anchor="middle" font-family="Georgia,serif" font-size="34" fill="#fff1be">Airtime</text><text x="530" y="208" text-anchor="middle" font-family="Georgia,serif" font-size="34" fill="#fff1be">Data</text><text x="360" y="265" text-anchor="middle" font-family="Georgia,serif" font-size="38" font-style="italic" fill="#f8d77d">for the celebration!</text></g><g transform="translate(820 790)" filter="url(#shadow)"><circle cx="175" cy="175" r="170" fill="#fffaf0" stroke="url(#gold)" stroke-width="9"/><text x="175" y="118" text-anchor="middle" font-family="Georgia,serif" font-size="31" fill="#4e1a22">Be Part of History</text><text x="175" y="175" text-anchor="middle" font-family="Georgia,serif" font-size="31" fill="#4e1a22">Be Part of Love</text><text x="175" y="240" text-anchor="middle" font-family="Georgia,serif" font-size="40" font-style="italic" fill="#5a0718">Don’t Miss Out!</text></g><rect y="1150" width="1240" height="90" fill="url(#wine)"/><text x="620" y="1207" text-anchor="middle" font-family="Georgia,serif" font-size="34" font-style="italic" fill="#e9bd62">Congratulations Peller &amp; Jarvis! Here’s to a beautiful forever!</text></svg>